<svg id="visual" viewBox="0 0 900 375" width="900" height="375" xmlns="http://www.w3.org/2000/svg" xmlns:xlink="http://www.w3.org/1999/xlink" version="1.1"><path d="M0 99L21.5 98.2C43 97.3 86 95.7 128.8 100.7C171.7 105.7 214.3 117.3 257.2 117.5C300 117.7 343 106.3 385.8 107.5C428.7 108.7 471.3 122.3 514.2 122.7C557 123 600 110 642.8 108.3C685.7 106.7 728.3 116.3 771.2 122.2C814 128 857 130 878.5 131L900 132L900 0L878.5 0C857 0 814 0 771.2 0C728.3 0 685.7 0 642.8 0C600 0 557 0 514.2 0C471.3 0 428.7 0 385.8 0C343 0 300 0 257.2 0C214.3 0 171.7 0 128.8 0C86 0 43 0 21.5 0L0 0Z" fill="#a3e9f1"></path><path d="M0 124L21.5 116.8C43 109.7 86 95.3 128.8 92.2C171.7 89 214.3 97 257.2 102.5C300 108 343 111 385.8 111.8C428.7 112.7 471.3 111.3 514.2 105.5C557 99.7 600 89.3 642.8 84.8C685.7 80.3 728.3 81.7 771.2 83.2C814 84.7 857 86.3 878.5 87.2L900 88L900 0L878.5 0C857 0 814 0 771.2 0C728.3 0 685.7 0 642.8 0C600 0 557 0 514.2 0C471.3 0 428.7 0 385.8 0C343 0 300 0 257.2 0C214.3 0 171.7 0 128.8 0C86 0 43 0 21.5 0L0 0Z" fill="#90e0ea"></path><path d="M0 88L21.5 89C43 90 86 92 128.8 92C171.7 92 214.3 90 257.2 85.5C300 81 343 74 385.8 70.7C428.7 67.3 471.3 67.7 514.2 66C557 64.3 600 60.7 642.8 58.5C685.7 56.3 728.3 55.7 771.2 55.7C814 55.7 857 56.3 878.5 56.7L900 57L900 0L878.5 0C857 0 814 0 771.2 0C728.3 0 685.7 0 642.8 0C600 0 557 0 514.2 0C471.3 0 428.7 0 385.8 0C343 0 300 0 257.2 0C214.3 0 171.7 0 128.8 0C86 0 43 0 21.5 0L0 0Z" fill="#7cd8e3"></path><path d="M0 53L21.5 50.7C43 48.3 86 43.7 128.8 43.7C171.7 43.7 214.3 48.3 257.2 51.2C300 54 343 55 385.8 55.7C428.7 56.3 471.3 56.7 514.2 58.5C557 60.3 600 63.7 642.8 61C685.7 58.3 728.3 49.7 771.2 48.2C814 46.7 857 52.3 878.5 55.2L900 58L900 0L878.5 0C857 0 814 0 771.2 0C728.3 0 685.7 0 642.8 0C600 0 557 0 514.2 0C471.3 0 428.7 0 385.8 0C343 0 300 0 257.2 0C214.3 0 171.7 0 128.8 0C86 0 43 0 21.5 0L0 0Z" fill="#66cfdc"></path><path d="M0 29L21.5 30.8C43 32.7 86 36.3 128.8 37.8C171.7 39.3 214.3 38.7 257.2 35C300 31.3 343 24.7 385.8 25.8C428.7 27 471.3 36 514.2 35.7C557 35.3 600 25.7 642.8 23.3C685.7 21 728.3 26 771.2 30.5C814 35 857 39 878.5 41L900 43L900 0L878.5 0C857 0 814 0 771.2 0C728.3 0 685.7 0 642.8 0C600 0 557 0 514.2 0C471.3 0 428.7 0 385.8 0C343 0 300 0 257.2 0C214.3 0 171.7 0 128.8 0C86 0 43 0 21.5 0L0 0Z" fill="#4cc7d5"></path></svg>