<svg id="visual" viewBox="0 0 960 180" width="960" height="180" xmlns="http://www.w3.org/2000/svg" xmlns:xlink="http://www.w3.org/1999/xlink" version="1.1"><path d="M0 119L16 115C32 111 64 103 96 100.7C128 98.3 160 101.7 192 108.8C224 116 256 127 288 132.8C320 138.7 352 139.3 384 130.7C416 122 448 104 480 104.3C512 104.7 544 123.3 576 126.3C608 129.3 640 116.7 672 112C704 107.3 736 110.7 768 107.3C800 104 832 94 864 98.5C896 103 928 122 944 131.5L960 141L960 0L944 0C928 0 896 0 864 0C832 0 800 0 768 0C736 0 704 0 672 0C640 0 608 0 576 0C544 0 512 0 480 0C448 0 416 0 384 0C352 0 320 0 288 0C256 0 224 0 192 0C160 0 128 0 96 0C64 0 32 0 16 0L0 0Z" fill="#a3e9f1"></path><path d="M0 67L16 71.7C32 76.3 64 85.7 96 87.7C128 89.7 160 84.3 192 85.5C224 86.7 256 94.3 288 100.2C320 106 352 110 384 106C416 102 448 90 480 83.2C512 76.3 544 74.7 576 74.8C608 75 640 77 672 81.8C704 86.7 736 94.3 768 100.2C800 106 832 110 864 105.8C896 101.7 928 89.3 944 83.2L960 77L960 0L944 0C928 0 896 0 864 0C832 0 800 0 768 0C736 0 704 0 672 0C640 0 608 0 576 0C544 0 512 0 480 0C448 0 416 0 384 0C352 0 320 0 288 0C256 0 224 0 192 0C160 0 128 0 96 0C64 0 32 0 16 0L0 0Z" fill="#90e0ea"></path><path d="M0 77L16 72.7C32 68.3 64 59.7 96 58C128 56.3 160 61.7 192 65.2C224 68.7 256 70.3 288 71C320 71.7 352 71.3 384 69.7C416 68 448 65 480 65.3C512 65.7 544 69.3 576 74.5C608 79.7 640 86.3 672 83C704 79.7 736 66.3 768 60.7C800 55 832 57 864 63C896 69 928 79 944 84L960 89L960 0L944 0C928 0 896 0 864 0C832 0 800 0 768 0C736 0 704 0 672 0C640 0 608 0 576 0C544 0 512 0 480 0C448 0 416 0 384 0C352 0 320 0 288 0C256 0 224 0 192 0C160 0 128 0 96 0C64 0 32 0 16 0L0 0Z" fill="#7cd8e3"></path><path d="M0 53L16 53C32 53 64 53 96 52.3C128 51.7 160 50.3 192 51.8C224 53.3 256 57.7 288 59.2C320 60.7 352 59.3 384 54.5C416 49.7 448 41.3 480 37.5C512 33.7 544 34.3 576 37C608 39.7 640 44.3 672 48.3C704 52.3 736 55.7 768 58.8C800 62 832 65 864 62.8C896 60.7 928 53.3 944 49.7L960 46L960 0L944 0C928 0 896 0 864 0C832 0 800 0 768 0C736 0 704 0 672 0C640 0 608 0 576 0C544 0 512 0 480 0C448 0 416 0 384 0C352 0 320 0 288 0C256 0 224 0 192 0C160 0 128 0 96 0C64 0 32 0 16 0L0 0Z" fill="#66cfdc"></path><path d="M0 27L16 26.2C32 25.3 64 23.7 96 23C128 22.3 160 22.7 192 22C224 21.3 256 19.7 288 20.7C320 21.7 352 25.3 384 28C416 30.7 448 32.3 480 30.7C512 29 544 24 576 21.7C608 19.3 640 19.7 672 19.7C704 19.7 736 19.3 768 22.7C800 26 832 33 864 36.5C896 40 928 40 944 40L960 40L960 0L944 0C928 0 896 0 864 0C832 0 800 0 768 0C736 0 704 0 672 0C640 0 608 0 576 0C544 0 512 0 480 0C448 0 416 0 384 0C352 0 320 0 288 0C256 0 224 0 192 0C160 0 128 0 96 0C64 0 32 0 16 0L0 0Z" fill="#4cc7d5"></path></svg>