<svg id="visual" viewBox="0 0 900 375" width="900" height="375" xmlns="http://www.w3.org/2000/svg" xmlns:xlink="http://www.w3.org/1999/xlink" version="1.1"><path d="M0 142L21.5 136.8C43 131.7 86 121.3 128.8 116.2C171.7 111 214.3 111 257.2 117.2C300 123.3 343 135.7 385.8 133.2C428.7 130.7 471.3 113.3 514.2 107.2C557 101 600 106 642.8 110.2C685.7 114.3 728.3 117.7 771.2 122.5C814 127.3 857 133.7 878.5 136.8L900 140L900 0L878.5 0C857 0 814 0 771.2 0C728.3 0 685.7 0 642.8 0C600 0 557 0 514.2 0C471.3 0 428.7 0 385.8 0C343 0 300 0 257.2 0C214.3 0 171.7 0 128.8 0C86 0 43 0 21.5 0L0 0Z" fill="#a3e9f1"></path><path d="M0 78L21.5 81.3C43 84.7 86 91.3 128.8 93.5C171.7 95.7 214.3 93.3 257.2 92.7C300 92 343 93 385.8 96.5C428.7 100 471.3 106 514.2 102.8C557 99.7 600 87.3 642.8 84.5C685.7 81.7 728.3 88.3 771.2 96.7C814 105 857 115 878.5 120L900 125L900 0L878.5 0C857 0 814 0 771.2 0C728.3 0 685.7 0 642.8 0C600 0 557 0 514.2 0C471.3 0 428.7 0 385.8 0C343 0 300 0 257.2 0C214.3 0 171.7 0 128.8 0C86 0 43 0 21.5 0L0 0Z" fill="#90e0ea"></path><path d="M0 76L21.5 77.8C43 79.7 86 83.3 128.8 82.7C171.7 82 214.3 77 257.2 75C300 73 343 74 385.8 71.3C428.7 68.7 471.3 62.3 514.2 65.5C557 68.7 600 81.3 642.8 82.2C685.7 83 728.3 72 771.2 66.5C814 61 857 61 878.5 61L900 61L900 0L878.5 0C857 0 814 0 771.2 0C728.3 0 685.7 0 642.8 0C600 0 557 0 514.2 0C471.3 0 428.7 0 385.8 0C343 0 300 0 257.2 0C214.3 0 171.7 0 128.8 0C86 0 43 0 21.5 0L0 0Z" fill="#7cd8e3"></path><path d="M0 58L21.5 55.8C43 53.7 86 49.3 128.8 48.8C171.7 48.3 214.3 51.7 257.2 54.5C300 57.3 343 59.7 385.8 62C428.7 64.3 471.3 66.7 514.2 65.2C557 63.7 600 58.3 642.8 56C685.7 53.7 728.3 54.3 771.2 57.3C814 60.3 857 65.7 878.5 68.3L900 71L900 0L878.5 0C857 0 814 0 771.2 0C728.3 0 685.7 0 642.8 0C600 0 557 0 514.2 0C471.3 0 428.7 0 385.8 0C343 0 300 0 257.2 0C214.3 0 171.7 0 128.8 0C86 0 43 0 21.5 0L0 0Z" fill="#66cfdc"></path><path d="M0 28L21.5 28.5C43 29 86 30 128.8 28.3C171.7 26.7 214.3 22.3 257.2 24C300 25.7 343 33.3 385.8 35.8C428.7 38.3 471.3 35.7 514.2 31.7C557 27.7 600 22.3 642.8 19.3C685.7 16.3 728.3 15.7 771.2 16.8C814 18 857 21 878.5 22.5L900 24L900 0L878.5 0C857 0 814 0 771.2 0C728.3 0 685.7 0 642.8 0C600 0 557 0 514.2 0C471.3 0 428.7 0 385.8 0C343 0 300 0 257.2 0C214.3 0 171.7 0 128.8 0C86 0 43 0 21.5 0L0 0Z" fill="#4cc7d5"></path></svg>