<svg id="visual" viewBox="0 0 1050 140" width="1050" height="140" xmlns="http://www.w3.org/2000/svg" xmlns:xlink="http://www.w3.org/1999/xlink" version="1.1"><path d="M0 45L21.8 47.3C43.7 49.7 87.3 54.3 131.2 56.5C175 58.7 219 58.3 262.8 57.5C306.7 56.7 350.3 55.3 394 52.7C437.7 50 481.3 46 525 46.3C568.7 46.7 612.3 51.3 656.2 55.2C700 59 744 62 787.8 63.8C831.7 65.7 875.3 66.3 919 64.8C962.7 63.3 1006.3 59.7 1028.2 57.8L1050 56L1050 0L1028.2 0C1006.3 0 962.7 0 919 0C875.3 0 831.7 0 787.8 0C744 0 700 0 656.2 0C612.3 0 568.7 0 525 0C481.3 0 437.7 0 394 0C350.3 0 306.7 0 262.8 0C219 0 175 0 131.2 0C87.3 0 43.7 0 21.8 0L0 0Z" fill="#a3e9f1"></path><path d="M0 50L21.8 46.7C43.7 43.3 87.3 36.7 131.2 34.7C175 32.7 219 35.3 262.8 37.7C306.7 40 350.3 42 394 43C437.7 44 481.3 44 525 42.5C568.7 41 612.3 38 656.2 37.7C700 37.3 744 39.7 787.8 41C831.7 42.3 875.3 42.7 919 43.2C962.7 43.7 1006.3 44.3 1028.2 44.7L1050 45L1050 0L1028.2 0C1006.3 0 962.7 0 919 0C875.3 0 831.7 0 787.8 0C744 0 700 0 656.2 0C612.3 0 568.7 0 525 0C481.3 0 437.7 0 394 0C350.3 0 306.7 0 262.8 0C219 0 175 0 131.2 0C87.3 0 43.7 0 21.8 0L0 0Z" fill="#8adee8"></path><path d="M0 22L21.8 24.5C43.7 27 87.3 32 131.2 32.2C175 32.3 219 27.7 262.8 25.3C306.7 23 350.3 23 394 23.2C437.7 23.3 481.3 23.7 525 25.7C568.7 27.7 612.3 31.3 656.2 33.3C700 35.3 744 35.7 787.8 34.2C831.7 32.7 875.3 29.3 919 26.3C962.7 23.3 1006.3 20.7 1028.2 19.3L1050 18L1050 0L1028.2 0C1006.3 0 962.7 0 919 0C875.3 0 831.7 0 787.8 0C744 0 700 0 656.2 0C612.3 0 568.7 0 525 0C481.3 0 437.7 0 394 0C350.3 0 306.7 0 262.8 0C219 0 175 0 131.2 0C87.3 0 43.7 0 21.8 0L0 0Z" fill="#6ed2de"></path><path d="M0 12L21.8 11.7C43.7 11.3 87.3 10.7 131.2 10.3C175 10 219 10 262.8 10.8C306.7 11.7 350.3 13.3 394 13C437.7 12.7 481.3 10.3 525 10.8C568.7 11.3 612.3 14.7 656.2 15.8C700 17 744 16 787.8 15.3C831.7 14.7 875.3 14.3 919 13.3C962.7 12.3 1006.3 10.7 1028.2 9.8L1050 9L1050 0L1028.2 0C1006.3 0 962.7 0 919 0C875.3 0 831.7 0 787.8 0C744 0 700 0 656.2 0C612.3 0 568.7 0 525 0C481.3 0 437.7 0 394 0C350.3 0 306.7 0 262.8 0C219 0 175 0 131.2 0C87.3 0 43.7 0 21.8 0L0 0Z" fill="#4cc7d5"></path></svg>